solid OBJECT
  facet normal -4.670986e-017 -2.798072e-001 9.600562e-001
    outer loop
      vertex 7.600000e+001 -6.886139e+001 3.829233e+000
      vertex 0.000000e+000 -6.886139e+001 3.829233e+000
      vertex 0.000000e+000 -8.200000e+001 0.000000e+000
    endloop
  endfacet
  facet normal 0.000000e+000 -2.798072e-001 9.600562e-001
    outer loop
      vertex 7.600000e+001 -6.886139e+001 3.829233e+000
      vertex 0.000000e+000 -8.200000e+001 0.000000e+000
      vertex 7.600000e+001 -8.200000e+001 0.000000e+000
    endloop
  endfacet
  facet normal 0.000000e+000 -9.349515e-002 9.956197e-001
    outer loop
      vertex 7.600000e+001 -5.428705e+001 5.197857e+000
      vertex 0.000000e+000 -5.428705e+001 5.197857e+000
      vertex 0.000000e+000 -6.886139e+001 3.829233e+000
    endloop
  endfacet
  facet normal -1.166450e-017 -9.349515e-002 9.956197e-001
    outer loop
      vertex 7.600000e+001 -5.428705e+001 5.197857e+000
      vertex 0.000000e+000 -6.886139e+001 3.829233e+000
      vertex 7.600000e+001 -6.886139e+001 3.829233e+000
    endloop
  endfacet
  facet normal -4.623233e-017 9.250983e-002 9.957118e-001
    outer loop
      vertex 3.800000e+001 -4.003207e+001 3.873452e+000
      vertex 0.000000e+000 -4.003207e+001 3.873452e+000
      vertex 0.000000e+000 -5.428705e+001 5.197857e+000
    endloop
  endfacet
  facet normal 1.163644e-017 9.250983e-002 9.957118e-001
    outer loop
      vertex 7.600000e+001 -5.428705e+001 5.197857e+000
      vertex 7.600000e+001 -4.003207e+001 3.873452e+000
      vertex 3.800000e+001 -4.003207e+001 3.873452e+000
    endloop
  endfacet
  facet normal 0.000000e+000 9.250983e-002 9.957118e-001
    outer loop
      vertex 0.000000e+000 -5.428705e+001 5.197857e+000
      vertex 7.600000e+001 -5.428705e+001 5.197857e+000
      vertex 3.800000e+001 -4.003207e+001 3.873452e+000
    endloop
  endfacet
  facet normal 8.962667e-017 4.793256e-001 8.776371e-001
    outer loop
      vertex 7.600000e+001 -2.655886e+001 -1.733678e+000
      vertex 3.800000e+001 -2.655886e+001 -1.733678e+000
      vertex 3.800000e+001 -3.270970e+001 1.625636e+000
    endloop
  endfacet
  facet normal 8.449839e-017 4.793256e-001 8.776371e-001
    outer loop
      vertex 7.600000e+001 -2.655886e+001 -1.733678e+000
      vertex 3.800000e+001 -3.270970e+001 1.625636e+000
      vertex 7.600000e+001 -3.270970e+001 1.625636e+000
    endloop
  endfacet
  facet normal -4.994161e-017 4.793256e-001 8.776371e-001
    outer loop
      vertex 3.800000e+001 -2.655886e+001 -1.733678e+000
      vertex 0.000000e+000 -2.655886e+001 -1.733678e+000
      vertex 0.000000e+000 -3.270970e+001 1.625636e+000
    endloop
  endfacet
  facet normal -8.525763e-017 4.793256e-001 8.776371e-001
    outer loop
      vertex 3.800000e+001 -2.655886e+001 -1.733678e+000
      vertex 0.000000e+000 -3.270970e+001 1.625636e+000
      vertex 3.800000e+001 -3.270970e+001 1.625636e+000
    endloop
  endfacet
  facet normal -4.370122e-017 2.934634e-001 9.559703e-001
    outer loop
      vertex 3.800000e+001 -3.270970e+001 1.625636e+000
      vertex 0.000000e+000 -3.270970e+001 1.625636e+000
      vertex 0.000000e+000 -4.003207e+001 3.873452e+000
    endloop
  endfacet
  facet normal -1.209185e-016 2.934634e-001 9.559703e-001
    outer loop
      vertex 3.800000e+001 -3.270970e+001 1.625636e+000
      vertex 0.000000e+000 -4.003207e+001 3.873452e+000
      vertex 3.800000e+001 -4.003207e+001 3.873452e+000
    endloop
  endfacet
  facet normal 4.928723e-017 2.934634e-001 9.559703e-001
    outer loop
      vertex 7.600000e+001 -3.270970e+001 1.625636e+000
      vertex 3.800000e+001 -3.270970e+001 1.625636e+000
      vertex 3.800000e+001 -4.003207e+001 3.873452e+000
    endloop
  endfacet
  facet normal 1.117200e-017 2.934634e-001 9.559703e-001
    outer loop
      vertex 7.600000e+001 -3.270970e+001 1.625636e+000
      vertex 3.800000e+001 -4.003207e+001 3.873452e+000
      vertex 7.600000e+001 -4.003207e+001 3.873452e+000
    endloop
  endfacet
  facet normal -3.279261e-017 3.265426e-001 9.451825e-001
    outer loop
      vertex 7.600000e+001 -1.390867e+001 -7.575362e+000
      vertex 3.800000e+001 -1.390867e+001 -7.575362e+000
      vertex 3.800000e+001 -2.070423e+001 -5.227625e+000
    endloop
  endfacet
  facet normal 6.558521e-018 3.265426e-001 9.451825e-001
    outer loop
      vertex 7.600000e+001 -1.390867e+001 -7.575362e+000
      vertex 3.800000e+001 -2.070423e+001 -5.227625e+000
      vertex 7.600000e+001 -2.070423e+001 -5.227625e+000
    endloop
  endfacet
  facet normal 5.262113e-017 3.265426e-001 9.451825e-001
    outer loop
      vertex 3.800000e+001 -1.390867e+001 -7.575362e+000
      vertex 0.000000e+000 -1.390867e+001 -7.575362e+000
      vertex 0.000000e+000 -2.070423e+001 -5.227625e+000
    endloop
  endfacet
  facet normal 0.000000e+000 3.265426e-001 9.451825e-001
    outer loop
      vertex 3.800000e+001 -1.390867e+001 -7.575362e+000
      vertex 0.000000e+000 -2.070423e+001 -5.227625e+000
      vertex 3.800000e+001 -2.070423e+001 -5.227625e+000
    endloop
  endfacet
  facet normal 0.000000e+000 5.124636e-001 8.587090e-001
    outer loop
      vertex 3.800000e+001 -2.070423e+001 -5.227625e+000
      vertex 0.000000e+000 -2.070423e+001 -5.227625e+000
      vertex 0.000000e+000 -2.655886e+001 -1.733678e+000
    endloop
  endfacet
  facet normal -5.958490e-017 5.124636e-001 8.587090e-001
    outer loop
      vertex 3.800000e+001 -2.070423e+001 -5.227625e+000
      vertex 0.000000e+000 -2.655886e+001 -1.733678e+000
      vertex 3.800000e+001 -2.655886e+001 -1.733678e+000
    endloop
  endfacet
  facet normal 0.000000e+000 5.124636e-001 8.587090e-001
    outer loop
      vertex 7.600000e+001 -2.070423e+001 -5.227625e+000
      vertex 3.800000e+001 -2.070423e+001 -5.227625e+000
      vertex 3.800000e+001 -2.655886e+001 -1.733678e+000
    endloop
  endfacet
  facet normal 9.582297e-017 5.124636e-001 8.587090e-001
    outer loop
      vertex 7.600000e+001 -2.070423e+001 -5.227625e+000
      vertex 3.800000e+001 -2.655886e+001 -1.733678e+000
      vertex 7.600000e+001 -2.655886e+001 -1.733678e+000
    endloop
  endfacet
  facet normal -3.505779e-019 -1.199936e-001 9.927747e-001
    outer loop
      vertex 7.600000e+001 4.683545e-002 -7.209750e+000
      vertex 3.800000e+001 4.683545e-002 -7.209750e+000
      vertex 3.800000e+001 -7.032077e+000 -8.065356e+000
    endloop
  endfacet
  facet normal 4.133255e-017 -1.199936e-001 9.927747e-001
    outer loop
      vertex 7.600000e+001 4.683545e-002 -7.209750e+000
      vertex 3.800000e+001 -7.032077e+000 -8.065356e+000
      vertex 7.600000e+001 -7.032077e+000 -8.065356e+000
    endloop
  endfacet
  facet normal -3.505779e-019 -1.199936e-001 9.927747e-001
    outer loop
      vertex 3.800000e+001 4.683545e-002 -7.209750e+000
      vertex 0.000000e+000 4.683545e-002 -7.209750e+000
      vertex 0.000000e+000 -7.032077e+000 -8.065356e+000
    endloop
  endfacet
  facet normal -4.360385e-017 -1.199936e-001 9.927747e-001
    outer loop
      vertex 3.800000e+001 4.683545e-002 -7.209750e+000
      vertex 0.000000e+000 -7.032077e+000 -8.065356e+000
      vertex 3.800000e+001 -7.032077e+000 -8.065356e+000
    endloop
  endfacet
  facet normal -4.828926e-017 7.107507e-002 9.974710e-001
    outer loop
      vertex 3.800000e+001 -7.032077e+000 -8.065356e+000
      vertex 0.000000e+000 -7.032077e+000 -8.065356e+000
      vertex 0.000000e+000 -1.390867e+001 -7.575362e+000
    endloop
  endfacet
  facet normal 2.995899e-017 7.107507e-002 9.974710e-001
    outer loop
      vertex 3.800000e+001 -7.032077e+000 -8.065356e+000
      vertex 0.000000e+000 -1.390867e+001 -7.575362e+000
      vertex 3.800000e+001 -1.390867e+001 -7.575362e+000
    endloop
  endfacet
  facet normal 4.828926e-017 7.107507e-002 9.974710e-001
    outer loop
      vertex 7.600000e+001 -7.032077e+000 -8.065356e+000
      vertex 3.800000e+001 -7.032077e+000 -8.065356e+000
      vertex 3.800000e+001 -1.390867e+001 -7.575362e+000
    endloop
  endfacet
  facet normal -2.663650e-017 7.107507e-002 9.974710e-001
    outer loop
      vertex 7.600000e+001 -7.032077e+000 -8.065356e+000
      vertex 3.800000e+001 -1.390867e+001 -7.575362e+000
      vertex 7.600000e+001 -1.390867e+001 -7.575362e+000
    endloop
  endfacet
  facet normal 0.000000e+000 -3.514262e-001 9.362156e-001
    outer loop
      vertex 3.800000e+001 4.683545e-002 -7.209750e+000
      vertex 7.600000e+001 4.683545e-002 -7.209750e+000
      vertex 7.600000e+001 1.337382e+001 -2.207214e+000
    endloop
  endfacet
  facet normal -1.026741e-018 -3.514262e-001 9.362156e-001
    outer loop
      vertex 0.000000e+000 1.337382e+001 -2.207214e+000
      vertex 0.000000e+000 4.683545e-002 -7.209750e+000
      vertex 3.800000e+001 4.683545e-002 -7.209750e+000
    endloop
  endfacet
  facet normal 2.743357e-018 -3.514262e-001 9.362156e-001
    outer loop
      vertex 7.600000e+001 1.337382e+001 -2.207214e+000
      vertex 0.000000e+000 1.337382e+001 -2.207214e+000
      vertex 3.800000e+001 4.683545e-002 -7.209750e+000
    endloop
  endfacet
  facet normal -2.002394e-017 -3.094913e-001 9.509023e-001
    outer loop
      vertex 7.600000e+001 2.706333e+001 2.248329e+000
      vertex 0.000000e+000 2.706333e+001 2.248329e+000
      vertex 0.000000e+000 1.337382e+001 -2.207214e+000
    endloop
  endfacet
  facet normal 1.677389e-018 -3.094913e-001 9.509023e-001
    outer loop
      vertex 7.600000e+001 2.706333e+001 2.248329e+000
      vertex 0.000000e+000 1.337382e+001 -2.207214e+000
      vertex 7.600000e+001 1.337382e+001 -2.207214e+000
    endloop
  endfacet
  facet normal 4.208962e-018 -8.478459e-002 9.963993e-001
    outer loop
      vertex 3.800000e+001 4.170583e+001 3.494273e+000
      vertex 0.000000e+000 4.170583e+001 3.494273e+000
      vertex 0.000000e+000 2.706333e+001 2.248329e+000
    endloop
  endfacet
  facet normal 1.164448e-017 -8.478459e-002 9.963993e-001
    outer loop
      vertex 7.600000e+001 2.706333e+001 2.248329e+000
      vertex 7.600000e+001 4.170583e+001 3.494273e+000
      vertex 3.800000e+001 4.170583e+001 3.494273e+000
    endloop
  endfacet
  facet normal -9.785599e-018 -8.478459e-002 9.963993e-001
    outer loop
      vertex 0.000000e+000 2.706333e+001 2.248329e+000
      vertex 7.600000e+001 2.706333e+001 2.248329e+000
      vertex 3.800000e+001 4.170583e+001 3.494273e+000
    endloop
  endfacet
  facet normal 1.350462e-016 3.769445e-001 9.262358e-001
    outer loop
      vertex 7.600000e+001 5.499457e+001 -5.381175e-002
      vertex 3.800000e+001 5.499457e+001 -5.381175e-002
      vertex 3.800000e+001 4.887683e+001 2.435890e+000
    endloop
  endfacet
  facet normal -5.965844e-017 3.769445e-001 9.262358e-001
    outer loop
      vertex 7.600000e+001 5.499457e+001 -5.381175e-002
      vertex 3.800000e+001 4.887683e+001 2.435890e+000
      vertex 7.600000e+001 4.887683e+001 2.435890e+000
    endloop
  endfacet
  facet normal -6.456329e-017 3.769445e-001 9.262358e-001
    outer loop
      vertex 3.800000e+001 5.499457e+001 -5.381175e-002
      vertex 0.000000e+000 5.499457e+001 -5.381175e-002
      vertex 0.000000e+000 4.887683e+001 2.435890e+000
    endloop
  endfacet
  facet normal 7.048295e-017 3.769445e-001 9.262358e-001
    outer loop
      vertex 3.800000e+001 5.499457e+001 -5.381175e-002
      vertex 0.000000e+000 4.887683e+001 2.435890e+000
      vertex 3.800000e+001 4.887683e+001 2.435890e+000
    endloop
  endfacet
  facet normal 2.730177e-017 1.460106e-001 9.892830e-001
    outer loop
      vertex 3.800000e+001 4.887683e+001 2.435890e+000
      vertex 0.000000e+000 4.887683e+001 2.435890e+000
      vertex 0.000000e+000 4.170583e+001 3.494273e+000
    endloop
  endfacet
  facet normal -3.886309e-017 1.460106e-001 9.892830e-001
    outer loop
      vertex 3.800000e+001 4.887683e+001 2.435890e+000
      vertex 0.000000e+000 4.170583e+001 3.494273e+000
      vertex 3.800000e+001 4.170583e+001 3.494273e+000
    endloop
  endfacet
  facet normal -1.574046e-017 1.460106e-001 9.892830e-001
    outer loop
      vertex 7.600000e+001 4.887683e+001 2.435890e+000
      vertex 3.800000e+001 4.887683e+001 2.435890e+000
      vertex 3.800000e+001 4.170583e+001 3.494273e+000
    endloop
  endfacet
  facet normal 1.372906e-017 1.460106e-001 9.892830e-001
    outer loop
      vertex 7.600000e+001 4.887683e+001 2.435890e+000
      vertex 3.800000e+001 4.170583e+001 3.494273e+000
      vertex 7.600000e+001 4.170583e+001 3.494273e+000
    endloop
  endfacet
  facet normal 0.000000e+000 7.507501e-001 6.605863e-001
    outer loop
      vertex 7.600000e+001 6.600000e+001 -1.000000e+001
      vertex 3.800000e+001 6.600000e+001 -1.000000e+001
      vertex 3.800000e+001 6.158165e+001 -4.978587e+000
    endloop
  endfacet
  facet normal -1.249390e-016 7.507501e-001 6.605863e-001
    outer loop
      vertex 7.600000e+001 6.600000e+001 -1.000000e+001
      vertex 3.800000e+001 6.158165e+001 -4.978587e+000
      vertex 7.600000e+001 6.158165e+001 -4.978587e+000
    endloop
  endfacet
  facet normal 0.000000e+000 7.507501e-001 6.605863e-001
    outer loop
      vertex 3.800000e+001 6.600000e+001 -1.000000e+001
      vertex 0.000000e+000 6.600000e+001 -1.000000e+001
      vertex 0.000000e+000 6.158165e+001 -4.978587e+000
    endloop
  endfacet
  facet normal 2.653179e-016 7.507501e-001 6.605863e-001
    outer loop
      vertex 3.800000e+001 6.600000e+001 -1.000000e+001
      vertex 0.000000e+000 6.158165e+001 -4.978587e+000
      vertex 3.800000e+001 6.158165e+001 -4.978587e+000
    endloop
  endfacet
  facet normal 2.052100e-016 5.987907e-001 8.009055e-001
    outer loop
      vertex 3.800000e+001 6.158165e+001 -4.978587e+000
      vertex 0.000000e+000 6.158165e+001 -4.978587e+000
      vertex 0.000000e+000 5.499457e+001 -5.381175e-002
    endloop
  endfacet
  facet normal -8.891838e-017 5.987907e-001 8.009055e-001
    outer loop
      vertex 3.800000e+001 6.158165e+001 -4.978587e+000
      vertex 0.000000e+000 5.499457e+001 -5.381175e-002
      vertex 3.800000e+001 5.499457e+001 -5.381175e-002
    endloop
  endfacet
  facet normal -9.324518e-017 5.987907e-001 8.009055e-001
    outer loop
      vertex 7.600000e+001 6.158165e+001 -4.978587e+000
      vertex 3.800000e+001 6.158165e+001 -4.978587e+000
      vertex 3.800000e+001 5.499457e+001 -5.381175e-002
    endloop
  endfacet
  facet normal 2.222959e-016 5.987907e-001 8.009055e-001
    outer loop
      vertex 7.600000e+001 6.158165e+001 -4.978587e+000
      vertex 3.800000e+001 5.499457e+001 -5.381175e-002
      vertex 7.600000e+001 5.499457e+001 -5.381175e-002
    endloop
  endfacet
  facet normal 4.670986e-017 -2.798072e-001 9.600562e-001
    outer loop
      vertex 1.520000e+002 -6.886139e+001 3.829233e+000
      vertex 7.600000e+001 -6.886139e+001 3.829233e+000
      vertex 7.600000e+001 -8.200000e+001 0.000000e+000
    endloop
  endfacet
  facet normal 0.000000e+000 -2.798072e-001 9.600562e-001
    outer loop
      vertex 1.520000e+002 -6.886139e+001 3.829233e+000
      vertex 7.600000e+001 -8.200000e+001 0.000000e+000
      vertex 1.520000e+002 -8.200000e+001 0.000000e+000
    endloop
  endfacet
  facet normal 0.000000e+000 -9.349515e-002 9.956197e-001
    outer loop
      vertex 1.520000e+002 -5.428705e+001 5.197857e+000
      vertex 7.600000e+001 -5.428705e+001 5.197857e+000
      vertex 7.600000e+001 -6.886139e+001 3.829233e+000
    endloop
  endfacet
  facet normal 1.166450e-017 -9.349515e-002 9.956197e-001
    outer loop
      vertex 1.520000e+002 -5.428705e+001 5.197857e+000
      vertex 7.600000e+001 -6.886139e+001 3.829233e+000
      vertex 1.520000e+002 -6.886139e+001 3.829233e+000
    endloop
  endfacet
  facet normal 3.459589e-017 9.250983e-002 9.957118e-001
    outer loop
      vertex 1.140000e+002 -4.003207e+001 3.873452e+000
      vertex 7.600000e+001 -4.003207e+001 3.873452e+000
      vertex 7.600000e+001 -5.428705e+001 5.197857e+000
    endloop
  endfacet
  facet normal 0.000000e+000 9.250983e-002 9.957118e-001
    outer loop
      vertex 1.520000e+002 -5.428705e+001 5.197857e+000
      vertex 1.520000e+002 -4.003207e+001 3.873452e+000
      vertex 1.140000e+002 -4.003207e+001 3.873452e+000
    endloop
  endfacet
  facet normal 0.000000e+000 9.250983e-002 9.957118e-001
    outer loop
      vertex 7.600000e+001 -5.428705e+001 5.197857e+000
      vertex 1.520000e+002 -5.428705e+001 5.197857e+000
      vertex 1.140000e+002 -4.003207e+001 3.873452e+000
    endloop
  endfacet
  facet normal 5.506989e-017 4.793256e-001 8.776371e-001
    outer loop
      vertex 1.520000e+002 -2.655886e+001 -1.733678e+000
      vertex 1.140000e+002 -2.655886e+001 -1.733678e+000
      vertex 1.140000e+002 -3.270970e+001 1.625636e+000
    endloop
  endfacet
  facet normal -5.128279e-018 4.793256e-001 8.776371e-001
    outer loop
      vertex 1.520000e+002 -2.655886e+001 -1.733678e+000
      vertex 1.140000e+002 -3.270970e+001 1.625636e+000
      vertex 1.520000e+002 -3.270970e+001 1.625636e+000
    endloop
  endfacet
  facet normal -9.743730e-017 4.793256e-001 8.776371e-001
    outer loop
      vertex 1.140000e+002 -2.655886e+001 -1.733678e+000
      vertex 7.600000e+001 -2.655886e+001 -1.733678e+000
      vertex 7.600000e+001 -3.270970e+001 1.625636e+000
    endloop
  endfacet
  facet normal 0.000000e+000 4.793256e-001 8.776371e-001
    outer loop
      vertex 1.140000e+002 -2.655886e+001 -1.733678e+000
      vertex 7.600000e+001 -3.270970e+001 1.625636e+000
      vertex 1.140000e+002 -3.270970e+001 1.625636e+000
    endloop
  endfacet
  facet normal 0.000000e+000 2.934634e-001 9.559703e-001
    outer loop
      vertex 1.140000e+002 -3.270970e+001 1.625636e+000
      vertex 7.600000e+001 -3.270970e+001 1.625636e+000
      vertex 7.600000e+001 -4.003207e+001 3.873452e+000
    endloop
  endfacet
  facet normal 1.061340e-016 2.934634e-001 9.559703e-001
    outer loop
      vertex 1.140000e+002 -3.270970e+001 1.625636e+000
      vertex 7.600000e+001 -4.003207e+001 3.873452e+000
      vertex 1.140000e+002 -4.003207e+001 3.873452e+000
    endloop
  endfacet
  facet normal -5.586001e-018 2.934634e-001 9.559703e-001
    outer loop
      vertex 1.520000e+002 -3.270970e+001 1.625636e+000
      vertex 1.140000e+002 -3.270970e+001 1.625636e+000
      vertex 1.140000e+002 -4.003207e+001 3.873452e+000
    endloop
  endfacet
  facet normal 0.000000e+000 2.934634e-001 9.559703e-001
    outer loop
      vertex 1.520000e+002 -3.270970e+001 1.625636e+000
      vertex 1.140000e+002 -4.003207e+001 3.873452e+000
      vertex 1.520000e+002 -4.003207e+001 3.873452e+000
    endloop
  endfacet
  facet normal 0.000000e+000 3.265426e-001 9.451825e-001
    outer loop
      vertex 1.520000e+002 -1.390867e+001 -7.575362e+000
      vertex 1.140000e+002 -1.390867e+001 -7.575362e+000
      vertex 1.140000e+002 -2.070423e+001 -5.227625e+000
    endloop
  endfacet
  facet normal 0.000000e+000 3.265426e-001 9.451825e-001
    outer loop
      vertex 1.520000e+002 -1.390867e+001 -7.575362e+000
      vertex 1.140000e+002 -2.070423e+001 -5.227625e+000
      vertex 1.520000e+002 -2.070423e+001 -5.227625e+000
    endloop
  endfacet
  facet normal -1.311704e-017 3.265426e-001 9.451825e-001
    outer loop
      vertex 1.140000e+002 -1.390867e+001 -7.575362e+000
      vertex 7.600000e+001 -1.390867e+001 -7.575362e+000
      vertex 7.600000e+001 -2.070423e+001 -5.227625e+000
    endloop
  endfacet
  facet normal 0.000000e+000 3.265426e-001 9.451825e-001
    outer loop
      vertex 1.140000e+002 -1.390867e+001 -7.575362e+000
      vertex 7.600000e+001 -2.070423e+001 -5.227625e+000
      vertex 1.140000e+002 -2.070423e+001 -5.227625e+000
    endloop
  endfacet
  facet normal 0.000000e+000 5.124636e-001 8.587090e-001
    outer loop
      vertex 1.140000e+002 -2.070423e+001 -5.227625e+000
      vertex 7.600000e+001 -2.070423e+001 -5.227625e+000
      vertex 7.600000e+001 -2.655886e+001 -1.733678e+000
    endloop
  endfacet
  facet normal -8.341887e-017 5.124636e-001 8.587090e-001
    outer loop
      vertex 1.140000e+002 -2.070423e+001 -5.227625e+000
      vertex 7.600000e+001 -2.655886e+001 -1.733678e+000
      vertex 1.140000e+002 -2.655886e+001 -1.733678e+000
    endloop
  endfacet
  facet normal 0.000000e+000 5.124636e-001 8.587090e-001
    outer loop
      vertex 1.520000e+002 -2.070423e+001 -5.227625e+000
      vertex 1.140000e+002 -2.070423e+001 -5.227625e+000
      vertex 1.140000e+002 -2.655886e+001 -1.733678e+000
    endloop
  endfacet
  facet normal 5.794684e-017 5.124636e-001 8.587090e-001
    outer loop
      vertex 1.520000e+002 -2.070423e+001 -5.227625e+000
      vertex 1.140000e+002 -2.655886e+001 -1.733678e+000
      vertex 1.520000e+002 -2.655886e+001 -1.733678e+000
    endloop
  endfacet
  facet normal 7.011558e-019 -1.199936e-001 9.927747e-001
    outer loop
      vertex 1.520000e+002 4.683545e-002 -7.209750e+000
      vertex 1.140000e+002 4.683545e-002 -7.209750e+000
      vertex 1.140000e+002 -7.032077e+000 -8.065356e+000
    endloop
  endfacet
  facet normal 4.133255e-017 -1.199936e-001 9.927747e-001
    outer loop
      vertex 1.520000e+002 4.683545e-002 -7.209750e+000
      vertex 1.140000e+002 -7.032077e+000 -8.065356e+000
      vertex 1.520000e+002 -7.032077e+000 -8.065356e+000
    endloop
  endfacet
  facet normal 0.000000e+000 -1.199936e-001 9.927747e-001
    outer loop
      vertex 1.140000e+002 4.683545e-002 -7.209750e+000
      vertex 7.600000e+001 4.683545e-002 -7.209750e+000
      vertex 7.600000e+001 -7.032077e+000 -8.065356e+000
    endloop
  endfacet
  facet normal -4.360385e-017 -1.199936e-001 9.927747e-001
    outer loop
      vertex 1.140000e+002 4.683545e-002 -7.209750e+000
      vertex 7.600000e+001 -7.032077e+000 -8.065356e+000
      vertex 1.140000e+002 -7.032077e+000 -8.065356e+000
    endloop
  endfacet
  facet normal -4.828926e-017 7.107507e-002 9.974710e-001
    outer loop
      vertex 1.140000e+002 -7.032077e+000 -8.065356e+000
      vertex 7.600000e+001 -7.032077e+000 -8.065356e+000
      vertex 7.600000e+001 -1.390867e+001 -7.575362e+000
    endloop
  endfacet
  facet normal -3.322492e-018 7.107507e-002 9.974710e-001
    outer loop
      vertex 1.140000e+002 -7.032077e+000 -8.065356e+000
      vertex 7.600000e+001 -1.390867e+001 -7.575362e+000
      vertex 1.140000e+002 -1.390867e+001 -7.575362e+000
    endloop
  endfacet
  facet normal 4.828926e-017 7.107507e-002 9.974710e-001
    outer loop
      vertex 1.520000e+002 -7.032077e+000 -8.065356e+000
      vertex 1.140000e+002 -7.032077e+000 -8.065356e+000
      vertex 1.140000e+002 -1.390867e+001 -7.575362e+000
    endloop
  endfacet
  facet normal 0.000000e+000 7.107507e-002 9.974710e-001
    outer loop
      vertex 1.520000e+002 -7.032077e+000 -8.065356e+000
      vertex 1.140000e+002 -1.390867e+001 -7.575362e+000
      vertex 1.520000e+002 -1.390867e+001 -7.575362e+000
    endloop
  endfacet
  facet normal 2.053482e-018 -3.514262e-001 9.362156e-001
    outer loop
      vertex 1.140000e+002 4.683545e-002 -7.209750e+000
      vertex 1.520000e+002 4.683545e-002 -7.209750e+000
      vertex 1.520000e+002 1.337382e+001 -2.207214e+000
    endloop
  endfacet
  facet normal 0.000000e+000 -3.514262e-001 9.362156e-001
    outer loop
      vertex 7.600000e+001 1.337382e+001 -2.207214e+000
      vertex 7.600000e+001 4.683545e-002 -7.209750e+000
      vertex 1.140000e+002 4.683545e-002 -7.209750e+000
    endloop
  endfacet
  facet normal -2.743357e-018 -3.514262e-001 9.362156e-001
    outer loop
      vertex 1.520000e+002 1.337382e+001 -2.207214e+000
      vertex 7.600000e+001 1.337382e+001 -2.207214e+000
      vertex 1.140000e+002 4.683545e-002 -7.209750e+000
    endloop
  endfacet
  facet normal 2.002394e-017 -3.094913e-001 9.509023e-001
    outer loop
      vertex 1.520000e+002 2.706333e+001 2.248329e+000
      vertex 7.600000e+001 2.706333e+001 2.248329e+000
      vertex 7.600000e+001 1.337382e+001 -2.207214e+000
    endloop
  endfacet
  facet normal -1.677389e-018 -3.094913e-001 9.509023e-001
    outer loop
      vertex 1.520000e+002 2.706333e+001 2.248329e+000
      vertex 7.600000e+001 1.337382e+001 -2.207214e+000
      vertex 1.520000e+002 1.337382e+001 -2.207214e+000
    endloop
  endfacet
  facet normal -2.749792e-017 -8.478459e-002 9.963993e-001
    outer loop
      vertex 1.140000e+002 4.170583e+001 3.494273e+000
      vertex 7.600000e+001 4.170583e+001 3.494273e+000
      vertex 7.600000e+001 2.706333e+001 2.248329e+000
    endloop
  endfacet
  facet normal 1.164448e-017 -8.478459e-002 9.963993e-001
    outer loop
      vertex 1.520000e+002 2.706333e+001 2.248329e+000
      vertex 1.520000e+002 4.170583e+001 3.494273e+000
      vertex 1.140000e+002 4.170583e+001 3.494273e+000
    endloop
  endfacet
  facet normal 9.785599e-018 -8.478459e-002 9.963993e-001
    outer loop
      vertex 7.600000e+001 2.706333e+001 2.248329e+000
      vertex 1.520000e+002 2.706333e+001 2.248329e+000
      vertex 1.140000e+002 4.170583e+001 3.494273e+000
    endloop
  endfacet
  facet normal -2.706127e-018 3.769445e-001 9.262358e-001
    outer loop
      vertex 1.520000e+002 5.499457e+001 -5.381175e-002
      vertex 1.140000e+002 5.499457e+001 -5.381175e-002
      vertex 1.140000e+002 4.887683e+001 2.435890e+000
    endloop
  endfacet
  facet normal 0.000000e+000 3.769445e-001 9.262358e-001
    outer loop
      vertex 1.520000e+002 5.499457e+001 -5.381175e-002
      vertex 1.140000e+002 4.887683e+001 2.435890e+000
      vertex 1.520000e+002 4.887683e+001 2.435890e+000
    endloop
  endfacet
  facet normal -6.777682e-017 3.769445e-001 9.262358e-001
    outer loop
      vertex 1.140000e+002 5.499457e+001 -5.381175e-002
      vertex 7.600000e+001 5.499457e+001 -5.381175e-002
      vertex 7.600000e+001 4.887683e+001 2.435890e+000
    endloop
  endfacet
  facet normal -1.285410e-017 3.769445e-001 9.262358e-001
    outer loop
      vertex 1.140000e+002 5.499457e+001 -5.381175e-002
      vertex 7.600000e+001 4.887683e+001 2.435890e+000
      vertex 1.140000e+002 4.887683e+001 2.435890e+000
    endloop
  endfacet
  facet normal -1.156131e-017 1.460106e-001 9.892830e-001
    outer loop
      vertex 1.140000e+002 4.887683e+001 2.435890e+000
      vertex 7.600000e+001 4.887683e+001 2.435890e+000
      vertex 7.600000e+001 4.170583e+001 3.494273e+000
    endloop
  endfacet
  facet normal 1.574046e-017 1.460106e-001 9.892830e-001
    outer loop
      vertex 1.140000e+002 4.887683e+001 2.435890e+000
      vertex 7.600000e+001 4.170583e+001 3.494273e+000
      vertex 1.140000e+002 4.170583e+001 3.494273e+000
    endloop
  endfacet
  facet normal 0.000000e+000 1.460106e-001 9.892830e-001
    outer loop
      vertex 1.520000e+002 4.887683e+001 2.435890e+000
      vertex 1.140000e+002 4.887683e+001 2.435890e+000
      vertex 1.140000e+002 4.170583e+001 3.494273e+000
    endloop
  endfacet
  facet normal 1.156131e-017 1.460106e-001 9.892830e-001
    outer loop
      vertex 1.520000e+002 4.887683e+001 2.435890e+000
      vertex 1.140000e+002 4.170583e+001 3.494273e+000
      vertex 1.520000e+002 4.170583e+001 3.494273e+000
    endloop
  endfacet
  facet normal 0.000000e+000 7.507501e-001 6.605863e-001
    outer loop
      vertex 1.520000e+002 6.600000e+001 -1.000000e+001
      vertex 1.140000e+002 6.600000e+001 -1.000000e+001
      vertex 1.140000e+002 6.158165e+001 -4.978587e+000
    endloop
  endfacet
  facet normal -2.807579e-016 7.507501e-001 6.605863e-001
    outer loop
      vertex 1.520000e+002 6.600000e+001 -1.000000e+001
      vertex 1.140000e+002 6.158165e+001 -4.978587e+000
      vertex 1.520000e+002 6.158165e+001 -4.978587e+000
    endloop
  endfacet
  facet normal 0.000000e+000 7.507501e-001 6.605863e-001
    outer loop
      vertex 1.140000e+002 6.600000e+001 -1.000000e+001
      vertex 7.600000e+001 6.600000e+001 -1.000000e+001
      vertex 7.600000e+001 6.158165e+001 -4.978587e+000
    endloop
  endfacet
  facet normal 1.403790e-016 7.507501e-001 6.605863e-001
    outer loop
      vertex 1.140000e+002 6.600000e+001 -1.000000e+001
      vertex 7.600000e+001 6.158165e+001 -4.978587e+000
      vertex 1.140000e+002 6.158165e+001 -4.978587e+000
    endloop
  endfacet
  facet normal 1.119648e-016 5.987907e-001 8.009055e-001
    outer loop
      vertex 1.140000e+002 6.158165e+001 -4.978587e+000
      vertex 7.600000e+001 6.158165e+001 -4.978587e+000
      vertex 7.600000e+001 5.499457e+001 -5.381175e-002
    endloop
  endfacet
  facet normal -1.111480e-016 5.987907e-001 8.009055e-001
    outer loop
      vertex 1.140000e+002 6.158165e+001 -4.978587e+000
      vertex 7.600000e+001 5.499457e+001 -5.381175e-002
      vertex 1.140000e+002 5.499457e+001 -5.381175e-002
    endloop
  endfacet
  facet normal -2.239297e-016 5.987907e-001 8.009055e-001
    outer loop
      vertex 1.520000e+002 6.158165e+001 -4.978587e+000
      vertex 1.140000e+002 6.158165e+001 -4.978587e+000
      vertex 1.140000e+002 5.499457e+001 -5.381175e-002
    endloop
  endfacet
  facet normal -2.222959e-017 5.987907e-001 8.009055e-001
    outer loop
      vertex 1.520000e+002 6.158165e+001 -4.978587e+000
      vertex 1.140000e+002 5.499457e+001 -5.381175e-002
      vertex 1.520000e+002 5.499457e+001 -5.381175e-002
    endloop
  endfacet
endsolid OBJECT
